<?xml version="1.0" encoding="UTF-8" standalone="no"?>
<!DOCTYPE svg PUBLIC "-//W3C//DTD SVG 1.1//EN" "http://www.w3.org/Graphics/SVG/1.1/DTD/svg11.dtd">
<svg width="100%" height="100%" viewBox="0 0 100 100" version="1.1" xmlns="http://www.w3.org/2000/svg" xmlns:xlink="http://www.w3.org/1999/xlink" xml:space="preserve" xmlns:serif="http://www.serif.com/" style="fill-rule:evenodd;clip-rule:evenodd;stroke-linejoin:round;stroke-miterlimit:1.41421;">
    <g id="_--" serif:id="+-">
        <circle cx="50" cy="50" r="50" style="fill:rgb(240,240,240);"/>
        <g transform="matrix(2.35185,3.52422e-18,3.21153e-18,1.91176,-72.6144,-36.0713)">
            <g>
                <g>
                    <g transform="matrix(0.425197,0,0,0.523077,21.8425,17.6462)">
                        <path d="M44.856,62.236L49.896,62.236L49.896,53.92C49.896,51.148 49.464,48.016 49.248,45.424L49.392,45.424L51.696,50.536L57.816,62.236L63.252,62.236L63.252,38.764L58.212,38.764L58.212,47.044C58.212,49.816 58.644,53.128 58.86,55.612L58.716,55.612L56.412,50.428L50.292,38.764L44.856,38.764L44.856,62.236Z" style="fill:white;fill-rule:nonzero;"/>
                    </g>
                    <g transform="matrix(0.425197,0,0,0.523077,21.8425,17.6462)">
                        <path d="M66.492,67.996L69.948,67.996L77.184,36.676L73.728,36.676L66.492,67.996Z" style="fill:white;fill-rule:nonzero;"/>
                    </g>
                    <g transform="matrix(0.425197,0,0,0.523077,21.8425,17.6462)">
                        <path d="M85.068,50.356C85.716,48.016 86.328,45.28 86.904,42.796L87.048,42.796C87.66,45.244 88.308,48.016 88.956,50.356L89.496,52.516L84.492,52.516L85.068,50.356ZM76.572,62.236L81.972,62.236L83.412,56.656L90.576,56.656L92.016,62.236L97.632,62.236L90.288,38.764L83.916,38.764L76.572,62.236Z" style="fill:white;fill-rule:nonzero;"/>
                    </g>
                </g>
            </g>
        </g>
    </g>
</svg>
