<?xml version="1.0" encoding="UTF-8"?>
<svg width="100px" height="100px" viewBox="0 0 100 100" version="1.1" xmlns="http://www.w3.org/2000/svg" xmlns:xlink="http://www.w3.org/1999/xlink">
    <!-- Generator: Sketch 52.2 (67145) - http://www.bohemiancoding.com/sketch -->
    <title>meter_1</title>
    <desc>Created with Sketch.</desc>
    <g id="Page-1" stroke="none" stroke-width="1" fill="none" fill-rule="evenodd">
        <g id="meter_1">
            <circle id="Oval" fill-opacity="0.8" fill="#BBBBBB" cx="50" cy="50" r="50"></circle>
            <path d="M49.5,71 C45.3333125,71 42.0416787,69.1863818 39.625,65.5590909 C37.2083213,61.9318 36,56.6818525 36,49.8090909 C36,42.9363293 37.2083213,37.7500175 39.625,34.25 C42.0416787,30.7499825 45.3333125,29 49.5,29 C53.6666875,29 56.9583213,30.7605885 59.375,34.2818182 C61.7916787,37.8030479 63,42.9787537 63,49.8090909 C63,56.6818525 61.7916787,61.9318 59.375,65.5590909 C56.9583213,69.1863818 53.6666875,71 49.5,71 Z M49.5,65 C50.4402563,65 51.3089583,64.7395859 52.1061321,64.21875 C52.9033059,63.6979141 53.5880475,62.8333394 54.1603774,61.625 C54.7327073,60.4166606 55.1823883,58.8541763 55.509434,56.9375 C55.8364796,55.0208238 56,52.6458475 56,49.8125 C56,47.0208194 55.8364796,44.6770928 55.509434,42.78125 C55.1823883,40.8854072 54.7327073,39.3541725 54.1603774,38.1875 C53.5880475,37.0208275 52.9033059,36.1979191 52.1061321,35.71875 C51.3089583,35.2395809 50.4402563,35 49.5,35 C48.5597437,35 47.6910417,35.2395809 46.8938679,35.71875 C46.0966941,36.1979191 45.4119525,37.0208275 44.8396226,38.1875 C44.2672927,39.3541725 43.8176117,40.8854072 43.490566,42.78125 C43.1635204,44.6770928 43,47.0208194 43,49.8125 C43,52.6458475 43.1635204,55.0208238 43.490566,56.9375 C43.8176117,58.8541763 44.2672927,60.4166606 44.8396226,61.625 C45.4119525,62.8333394 46.0966941,63.6979141 46.8938679,64.21875 C47.6910417,64.7395859 48.5597437,65 49.5,65 Z" id="0" fill="#FFFFFF"></path>
        </g>
    </g>
</svg>