<?xml version="1.0" encoding="UTF-8"?>
<svg width="20px" height="20px" viewBox="0 0 20 20" version="1.1" xmlns="http://www.w3.org/2000/svg" xmlns:xlink="http://www.w3.org/1999/xlink">
    <!-- Generator: Sketch 51.3 (57544) - http://www.bohemiancoding.com/sketch -->
    <title>scale / 6 outline icons / 3 positive</title>
    <desc>Created with Sketch.</desc>
    <defs></defs>
    <g id="scale-/-6-outline-icons-/-3-positive" stroke="none" stroke-width="1" fill="none" fill-rule="evenodd">
        <g id="Group-2" transform="translate(2.000000, 2.000000)">
            <path d="M14.9270833,3.98958333 C15.6423647,5.21181167 16,6.54860385 16,8 C16,9.45139615 15.6423647,10.7899244 14.9270833,12.015625 C14.211802,13.2413256 13.2413256,14.211802 12.015625,14.9270833 C10.7899244,15.6423647 9.45139615,16 8,16 C6.54860385,16 5.21007557,15.6423647 3.984375,14.9270833 C2.75867443,14.211802 1.78819802,13.2413256 1.07291667,12.015625 C0.357635312,10.7899244 0,9.45139615 0,8 C0,6.54860385 0.357635312,5.21007557 1.07291667,3.984375 C1.78819802,2.75867443 2.75867443,1.78819802 3.984375,1.07291667 C5.21007557,0.357635312 6.54860385,0 8,0 C9.45139615,0 10.7899244,0.357635312 12.015625,1.07291667 C13.2413256,1.78819802 14.211802,2.76041052 14.9270833,3.98958333 Z" id="plus-circle---FontAwesome" stroke="#0AB21A"></path>
            <g id="Group" transform="translate(2.500000, 5.500000)" fill="#0AB21A" fill-rule="nonzero">
                <path d="M5,2.85714286 L5,2.14285714 C5,2.04613047 4.96465809,1.96242595 4.89397321,1.89174107 C4.82328834,1.82105619 4.73958382,1.78571429 4.64285714,1.78571429 L3.21428571,1.78571429 L3.21428571,0.357142857 C3.21428571,0.260416183 3.17894381,0.176711663 3.10825893,0.106026786 C3.03757405,0.0353419085 2.95386953,0 2.85714286,0 L2.14285714,0 C2.04613047,0 1.96242595,0.0353419085 1.89174107,0.106026786 C1.82105619,0.176711663 1.78571429,0.260416183 1.78571429,0.357142857 L1.78571429,1.78571429 L0.357142857,1.78571429 C0.260416183,1.78571429 0.176711663,1.82105619 0.106026786,1.89174107 C0.0353419085,1.96242595 0,2.04613047 0,2.14285714 L0,2.85714286 C0,2.95386953 0.0353419085,3.03757405 0.106026786,3.10825893 C0.176711663,3.17894381 0.260416183,3.21428571 0.357142857,3.21428571 L1.78571429,3.21428571 L1.78571429,4.64285714 C1.78571429,4.73958382 1.82105619,4.82328834 1.89174107,4.89397321 C1.96242595,4.96465809 2.04613047,5 2.14285714,5 L2.85714286,5 C2.95386953,5 3.03757405,4.96465809 3.10825893,4.89397321 C3.17894381,4.82328834 3.21428571,4.73958382 3.21428571,4.64285714 L3.21428571,3.21428571 L4.64285714,3.21428571 C4.73958382,3.21428571 4.82328834,3.17894381 4.89397321,3.10825893 C4.96465809,3.03757405 5,2.95386953 5,2.85714286 Z" id="Path"></path>
                <path d="M11,2.85714286 L11,2.14285714 C11,2.04613047 10.9646581,1.96242595 10.8939732,1.89174107 C10.8232883,1.82105619 10.7395838,1.78571429 10.6428571,1.78571429 L9.21428571,1.78571429 L9.21428571,0.357142857 C9.21428571,0.260416183 9.17894381,0.176711663 9.10825893,0.106026786 C9.03757405,0.0353419085 8.95386953,0 8.85714286,0 L8.14285714,0 C8.04613047,0 7.96242595,0.0353419085 7.89174107,0.106026786 C7.82105619,0.176711663 7.78571429,0.260416183 7.78571429,0.357142857 L7.78571429,1.78571429 L6.35714286,1.78571429 C6.26041618,1.78571429 6.17671166,1.82105619 6.10602679,1.89174107 C6.03534191,1.96242595 6,2.04613047 6,2.14285714 L6,2.85714286 C6,2.95386953 6.03534191,3.03757405 6.10602679,3.10825893 C6.17671166,3.17894381 6.26041618,3.21428571 6.35714286,3.21428571 L7.78571429,3.21428571 L7.78571429,4.64285714 C7.78571429,4.73958382 7.82105619,4.82328834 7.89174107,4.89397321 C7.96242595,4.96465809 8.04613047,5 8.14285714,5 L8.85714286,5 C8.95386953,5 9.03757405,4.96465809 9.10825893,4.89397321 C9.17894381,4.82328834 9.21428571,4.73958382 9.21428571,4.64285714 L9.21428571,3.21428571 L10.6428571,3.21428571 C10.7395838,3.21428571 10.8232883,3.17894381 10.8939732,3.10825893 C10.9646581,3.03757405 11,2.95386953 11,2.85714286 Z" id="Path"></path>
            </g>
        </g>
    </g>
</svg>