<?xml version="1.0" encoding="UTF-8"?>
<svg width="20px" height="20px" viewBox="0 0 20 20" version="1.1" xmlns="http://www.w3.org/2000/svg" xmlns:xlink="http://www.w3.org/1999/xlink">
    <!-- Generator: Sketch 51.3 (57544) - http://www.bohemiancoding.com/sketch -->
    <title>scale / 6 outline icons / 2 slightly positive</title>
    <desc>Created with Sketch.</desc>
    <defs>
        <linearGradient x1="109.853322%" y1="50%" x2="-16.0369166%" y2="50%" id="linearGradient-1">
            <stop stop-color="#0AB21A" offset="0%"></stop>
            <stop stop-color="#0AB21A" offset="47.5433526%"></stop>
            <stop stop-color="#D61F1F" offset="48.1055816%"></stop>
            <stop stop-color="#D61F1F" offset="100%"></stop>
        </linearGradient>
    </defs>
    <g id="scale-/-6-outline-icons-/-2-slightly-positive" stroke="none" stroke-width="1" fill="none" fill-rule="evenodd">
        <path d="M16.49555,6.24212839 C15.8230787,5.08652533 14.9146498,4.17647136 13.7636134,3.50476174 C12.6148567,2.83438246 11.3633573,2.5 10,2.5 C8.6366427,2.5 7.3851433,2.83438246 6.23638657,3.50476174 C5.08512861,4.17660066 4.17660066,5.08512861 3.50476174,6.23638657 C2.83438246,7.3851433 2.5,8.6366427 2.5,10 C2.5,11.3633573 2.83438246,12.6148567 3.50476174,13.7636134 C4.17660066,14.9148714 5.08512861,15.8233993 6.23638657,16.4952383 C7.3851433,17.1656175 8.6366427,17.5 10,17.5 C11.3633573,17.5 12.6148567,17.1656175 13.7636134,16.4952383 C14.9148714,15.8233993 15.8233993,14.9148714 16.4952383,13.7636134 C17.1656175,12.6148567 17.5,11.3633573 17.5,10 C17.5,8.63680268 17.1657021,7.38724265 16.49555,6.24212839 Z M18.5,10 C18.5,11.539435 18.1191118,12.9649922 17.3589284,14.2676366 C16.6002046,15.5677798 15.5677798,16.6002046 14.2676366,17.3589284 C12.9649922,18.1191118 11.539435,18.5 10,18.5 C8.46056501,18.5 7.03500785,18.1191118 5.73236343,17.3589284 C4.43222024,16.6002046 3.39979538,15.5677798 2.64107159,14.2676366 C1.88088816,12.9649922 1.5,11.539435 1.5,10 C1.5,8.46056501 1.88088816,7.03500785 2.64107159,5.73236343 C3.39979538,4.43222024 4.43222024,3.39979538 5.73236343,2.64107159 C7.03500785,1.88088816 8.46056501,1.5 10,1.5 C11.539435,1.5 12.9649922,1.88088816 14.2676366,2.64107159 C15.5678241,3.39982128 16.6002439,4.43401385 17.3589281,5.73757045 C18.1191313,7.03676952 18.5,8.46061522 18.5,10 Z" id="minus-circle---FontAwesome" fill="#CBCBCB" fill-rule="nonzero"></path>
        <path d="M16.49555,6.24212839 C15.8230787,5.08652533 14.9146498,4.17647136 13.7636134,3.50476174 C12.6148567,2.83438246 11.3633573,2.5 10,2.5 C8.6366427,2.5 7.3851433,2.83438246 6.23638657,3.50476174 C5.08512861,4.17660066 4.17660066,5.08512861 3.50476174,6.23638657 C2.83438246,7.3851433 2.5,8.6366427 2.5,10 C2.5,11.3633573 2.83438246,12.6148567 3.50476174,13.7636134 C4.17660066,14.9148714 5.08512861,15.8233993 6.23638657,16.4952383 C7.3851433,17.1656175 8.6366427,17.5 10,17.5 C11.3633573,17.5 12.6148567,17.1656175 13.7636134,16.4952383 C14.9148714,15.8233993 15.8233993,14.9148714 16.4952383,13.7636134 C17.1656175,12.6148567 17.5,11.3633573 17.5,10 C17.5,8.63680268 17.1657021,7.38724265 16.49555,6.24212839 Z M18.5,10 C18.5,11.539435 18.1191118,12.9649922 17.3589284,14.2676366 C16.6002046,15.5677798 15.5677798,16.6002046 14.2676366,17.3589284 C12.9649922,18.1191118 11.539435,18.5 10,18.5 C8.46056501,18.5 7.03500785,18.1191118 5.73236343,17.3589284 C4.43222024,16.6002046 3.39979538,15.5677798 2.64107159,14.2676366 C1.88088816,12.9649922 1.5,11.539435 1.5,10 C1.5,8.46056501 1.88088816,7.03500785 2.64107159,5.73236343 C3.39979538,4.43222024 4.43222024,3.39979538 5.73236343,2.64107159 C7.03500785,1.88088816 8.46056501,1.5 10,1.5 C11.539435,1.5 12.9649922,1.88088816 14.2676366,2.64107159 C15.5678241,3.39982128 16.6002439,4.43401385 17.3589281,5.73757045 C18.1191313,7.03676952 18.5,8.46061522 18.5,10 Z" id="minus-circle---FontAwesome" fill="url(#linearGradient-1)" fill-rule="nonzero"></path>
        <path d="M10,16.5 L10,4" id="Line" stroke="#CBCBCB" stroke-width="0.3" stroke-linecap="square" fill-rule="nonzero"></path>
        <g id="Group-3" transform="translate(4.000000, 7.500000)" fill-rule="nonzero">
            <g id="Group-2" transform="translate(7.000000, 0.000000)" fill="#0AB21A">
                <g id="Group">
                    <path d="M4.58333333,2.96428571 L4.58333333,2.36904762 C4.58333333,2.28844206 4.55388174,2.21868829 4.49497768,2.15978423 C4.43607361,2.10088016 4.36631985,2.07142857 4.28571429,2.07142857 L3.0952381,2.07142857 L3.0952381,0.880952381 C3.0952381,0.800346819 3.0657865,0.730593052 3.00688244,0.671688988 C2.94797838,0.612784924 2.87822461,0.583333333 2.79761905,0.583333333 L2.20238095,0.583333333 C2.12177539,0.583333333 2.05202162,0.612784924 1.99311756,0.671688988 C1.9342135,0.730593052 1.9047619,0.800346819 1.9047619,0.880952381 L1.9047619,2.07142857 L0.714285714,2.07142857 C0.633680153,2.07142857 0.563926386,2.10088016 0.505022321,2.15978423 C0.446118257,2.21868829 0.416666667,2.28844206 0.416666667,2.36904762 L0.416666667,2.96428571 C0.416666667,3.04489128 0.446118257,3.11464504 0.505022321,3.17354911 C0.563926386,3.23245317 0.633680153,3.26190476 0.714285714,3.26190476 L1.9047619,3.26190476 L1.9047619,4.45238095 C1.9047619,4.53298651 1.9342135,4.60274028 1.99311756,4.66164435 C2.05202162,4.72054841 2.12177539,4.75 2.20238095,4.75 L2.79761905,4.75 C2.87822461,4.75 2.94797838,4.72054841 3.00688244,4.66164435 C3.0657865,4.60274028 3.0952381,4.53298651 3.0952381,4.45238095 L3.0952381,3.26190476 L4.28571429,3.26190476 C4.36631985,3.26190476 4.43607361,3.23245317 4.49497768,3.17354911 C4.55388174,3.11464504 4.58333333,3.04489128 4.58333333,2.96428571 Z" id="Path"></path>
                </g>
            </g>
            <path d="M4.2,2.9 L4.2,2.3 C4.2,2.21874959 4.1703128,2.1484378 4.1109375,2.0890625 C4.0515622,2.0296872 3.98125041,2 3.9,2 L0.3,2 C0.218749594,2 0.148437797,2.0296872 0.0890625,2.0890625 C0.0296872031,2.1484378 0,2.21874959 0,2.3 L0,2.9 C0,2.98125041 0.0296872031,3.0515622 0.0890625,3.1109375 C0.148437797,3.1703128 0.218749594,3.2 0.3,3.2 L3.9,3.2 C3.98125041,3.2 4.0515622,3.1703128 4.1109375,3.1109375 C4.1703128,3.0515622 4.2,2.98125041 4.2,2.9 Z" id="Path" fill="#D61F1F"></path>
        </g>
    </g>
</svg>