<?xml version="1.0" encoding="UTF-8"?>
<svg width="18px" height="18px" viewBox="0 0 18 18" version="1.1" xmlns="http://www.w3.org/2000/svg" xmlns:xlink="http://www.w3.org/1999/xlink">
    <!-- Generator: Sketch 51.3 (57544) - http://www.bohemiancoding.com/sketch -->
    <title>Group 2</title>
    <desc>Created with Sketch.</desc>
    <defs></defs>
    <g id="Symbols" stroke="none" stroke-width="1" fill="none" fill-rule="evenodd">
        <g id="scale-/-6-outline-icons-/-2-slightly-positive" transform="translate(-1.000000, -1.000000)">
            <g id="Group-2" transform="translate(2.000000, 2.000000)">
                <path d="M14.9270833,3.98958333 C15.6423647,5.21181167 16,6.54860385 16,8 C16,9.45139615 15.6423647,10.7899244 14.9270833,12.015625 C14.211802,13.2413256 13.2413256,14.211802 12.015625,14.9270833 C10.7899244,15.6423647 9.45139615,16 8,16 C6.54860385,16 5.21007557,15.6423647 3.984375,14.9270833 C2.75867443,14.211802 1.78819802,13.2413256 1.07291667,12.015625 C0.357635312,10.7899244 0,9.45139615 0,8 C0,6.54860385 0.357635312,5.21007557 1.07291667,3.984375 C1.78819802,2.75867443 2.75867443,1.78819802 3.984375,1.07291667 C5.21007557,0.357635312 6.54860385,0 8,0 C9.45139615,0 10.7899244,0.357635312 12.015625,1.07291667 C13.2413256,1.78819802 14.211802,2.76041052 14.9270833,3.98958333 Z" id="plus-circle---FontAwesome" stroke="#0AB21A"></path>
                <g id="Group" transform="translate(5.500000, 5.500000)" fill="#0AB21A" fill-rule="nonzero">
                    <path d="M5,2.85714286 L5,2.14285714 C5,2.04613047 4.96465809,1.96242595 4.89397321,1.89174107 C4.82328834,1.82105619 4.73958382,1.78571429 4.64285714,1.78571429 L3.21428571,1.78571429 L3.21428571,0.357142857 C3.21428571,0.260416183 3.17894381,0.176711663 3.10825893,0.106026786 C3.03757405,0.0353419085 2.95386953,0 2.85714286,0 L2.14285714,0 C2.04613047,0 1.96242595,0.0353419085 1.89174107,0.106026786 C1.82105619,0.176711663 1.78571429,0.260416183 1.78571429,0.357142857 L1.78571429,1.78571429 L0.357142857,1.78571429 C0.260416183,1.78571429 0.176711663,1.82105619 0.106026786,1.89174107 C0.0353419085,1.96242595 0,2.04613047 0,2.14285714 L0,2.85714286 C0,2.95386953 0.0353419085,3.03757405 0.106026786,3.10825893 C0.176711663,3.17894381 0.260416183,3.21428571 0.357142857,3.21428571 L1.78571429,3.21428571 L1.78571429,4.64285714 C1.78571429,4.73958382 1.82105619,4.82328834 1.89174107,4.89397321 C1.96242595,4.96465809 2.04613047,5 2.14285714,5 L2.85714286,5 C2.95386953,5 3.03757405,4.96465809 3.10825893,4.89397321 C3.17894381,4.82328834 3.21428571,4.73958382 3.21428571,4.64285714 L3.21428571,3.21428571 L4.64285714,3.21428571 C4.73958382,3.21428571 4.82328834,3.17894381 4.89397321,3.10825893 C4.96465809,3.03757405 5,2.95386953 5,2.85714286 Z" id="Path"></path>
                </g>
            </g>
        </g>
    </g>
</svg>